<svg width="474" height="35" viewBox="0 0 474 35" fill="none" xmlns="http://www.w3.org/2000/svg">
<path d="M19.0138 10.2695C18.8647 8.87393 18.2362 7.78729 17.1282 7.00959C16.0309 6.23189 14.6033 5.84304 12.8455 5.84304C11.6097 5.84304 10.5497 6.02947 9.66548 6.40234C8.78125 6.77521 8.10476 7.28125 7.63601 7.92045C7.16726 8.55966 6.92756 9.28942 6.9169 10.1097C6.9169 10.7915 7.07138 11.3828 7.38033 11.8835C7.69993 12.3842 8.13139 12.8104 8.67472 13.1619C9.21804 13.5028 9.81996 13.7905 10.4805 14.0249C11.141 14.2592 11.8068 14.4563 12.478 14.6161L15.5462 15.3832C16.782 15.6708 17.9698 16.0597 19.1097 16.5497C20.2603 17.0398 21.2884 17.6577 22.1939 18.4034C23.1101 19.1491 23.8345 20.0494 24.3672 21.104C24.8999 22.1587 25.1662 23.3945 25.1662 24.8114C25.1662 26.729 24.6761 28.4176 23.696 29.8771C22.7159 31.326 21.299 32.4606 19.4453 33.2809C17.6023 34.0906 15.3704 34.4954 12.7496 34.4954C10.2035 34.4954 7.9929 34.1012 6.1179 33.3129C4.25355 32.5245 2.79403 31.3739 1.73935 29.8612C0.695313 28.3484 0.130682 26.5053 0.0454546 24.332H5.8782C5.96342 25.4719 6.31499 26.4201 6.93288 27.1765C7.55078 27.9329 8.35511 28.4975 9.34588 28.8704C10.3473 29.2433 11.4659 29.4297 12.7017 29.4297C13.9908 29.4297 15.12 29.2379 16.0895 28.8544C17.0696 28.4602 17.8366 27.9169 18.3906 27.2244C18.9446 26.5213 19.2269 25.701 19.2376 24.7635C19.2269 23.9112 18.9766 23.2081 18.4865 22.6541C17.9964 22.0895 17.3093 21.6207 16.4251 21.2479C15.5515 20.8643 14.5288 20.5234 13.3569 20.2251L9.63352 19.2663C6.93821 18.5739 4.80753 17.5245 3.24148 16.1183C1.68608 14.7013 0.908381 12.821 0.908381 10.4773C0.908381 8.549 1.4304 6.86044 2.47443 5.41158C3.52912 3.96271 4.962 2.83878 6.77308 2.03977C8.58416 1.23011 10.6349 0.825283 12.9254 0.825283C15.2479 0.825283 17.2827 1.23011 19.0298 2.03977C20.7876 2.83878 22.1673 3.95206 23.1687 5.37961C24.1701 6.79652 24.6868 8.42649 24.7188 10.2695H19.0138ZM36.3802 1.27273V34H30.4516V1.27273H36.3802ZM49.6877 34L40.4512 1.27273H46.8272L52.7239 25.3228H53.0275L59.3237 1.27273H65.1245L71.4366 25.3388H71.7243L77.6209 1.27273H83.997L74.7605 34H68.9118L62.3599 11.0366H62.1042L55.5364 34H49.6877ZM89.2345 34H82.9063L94.428 1.27273H101.747L113.285 34H106.956L98.2153 7.98438H97.9596L89.2345 34ZM89.4422 21.168H106.701V25.93H89.4422V21.168ZM112.202 6.24254V1.27273H138.313V6.24254H128.198V34H122.317V6.24254H112.202ZM154.509 34V1.27273H166.782C169.296 1.27273 171.406 1.74148 173.11 2.67898C174.825 3.61648 176.12 4.90554 176.993 6.54616C177.877 8.17614 178.32 10.0298 178.32 12.1072C178.32 14.206 177.877 16.0703 176.993 17.7003C176.109 19.3303 174.804 20.614 173.078 21.5515C171.352 22.4783 169.227 22.9418 166.702 22.9418H158.568V18.0678H165.903C167.373 18.0678 168.577 17.8121 169.515 17.3008C170.452 16.7894 171.145 16.0863 171.592 15.1914C172.05 14.2965 172.279 13.2685 172.279 12.1072C172.279 10.946 172.05 9.9233 171.592 9.03906C171.145 8.15483 170.447 7.46768 169.499 6.97763C168.561 6.47692 167.352 6.22656 165.871 6.22656H160.438V34H154.509ZM183.469 34V1.27273H189.398V15.1275H204.563V1.27273H210.508V34H204.563V20.0973H189.398V34H183.469ZM237.586 1.27273H243.514V22.6541C243.514 24.9979 242.96 27.0593 241.853 28.8384C240.755 30.6175 239.21 32.0078 237.218 33.0092C235.226 34 232.898 34.4954 230.235 34.4954C227.561 34.4954 225.228 34 223.236 33.0092C221.244 32.0078 219.699 30.6175 218.601 28.8384C217.504 27.0593 216.956 24.9979 216.956 22.6541V1.27273H222.884V22.1587C222.884 23.5224 223.182 24.7369 223.779 25.8022C224.386 26.8675 225.239 27.7038 226.336 28.3111C227.433 28.9077 228.733 29.206 230.235 29.206C231.737 29.206 233.037 28.9077 234.134 28.3111C235.242 27.7038 236.094 26.8675 236.691 25.8022C237.288 24.7369 237.586 23.5224 237.586 22.1587V1.27273ZM248.52 6.24254V1.27273H274.632V6.24254H264.516V34H258.636V6.24254H248.52ZM278.227 6.24254V1.27273H304.339V6.24254H294.223V34H288.343V6.24254H278.227ZM309.373 34V1.27273H315.301V15.1275H330.466V1.27273H336.411V34H330.466V20.0973H315.301V34H309.373ZM347.062 34H340.733L352.255 1.27273H359.574L371.112 34H364.784L356.042 7.98438H355.787L347.062 34ZM347.269 21.168H364.528V25.93H347.269V21.168ZM375.422 34V1.27273H387.951C390.316 1.27273 392.281 1.6456 393.847 2.39133C395.424 3.12642 396.601 4.13317 397.379 5.41158C398.167 6.68998 398.562 8.13885 398.562 9.75817C398.562 11.0898 398.306 12.2298 397.794 13.1779C397.283 14.1154 396.596 14.8771 395.733 15.4631C394.87 16.049 393.906 16.4698 392.841 16.7255V17.0451C394.002 17.109 395.115 17.4659 396.18 18.1158C397.256 18.755 398.135 19.6605 398.817 20.8324C399.499 22.0043 399.84 23.4212 399.84 25.0831C399.84 26.777 399.43 28.3004 398.609 29.6534C397.789 30.9957 396.553 32.0558 394.902 32.8335C393.251 33.6112 391.173 34 388.67 34H375.422ZM381.351 29.0462H387.727C389.879 29.0462 391.429 28.636 392.377 27.8157C393.336 26.9847 393.815 25.9194 393.815 24.6197C393.815 23.6502 393.576 22.7766 393.096 21.9989C392.617 21.2106 391.935 20.5927 391.051 20.1452C390.167 19.6871 389.112 19.4581 387.887 19.4581H381.351V29.0462ZM381.351 15.1914H387.216C388.238 15.1914 389.16 15.005 389.98 14.6321C390.801 14.2486 391.445 13.7106 391.914 13.0181C392.393 12.315 392.633 11.484 392.633 10.5252C392.633 9.25746 392.185 8.21342 391.291 7.39311C390.406 6.5728 389.091 6.16264 387.343 6.16264H381.351V15.1914ZM425.628 1.27273H431.556V22.6541C431.556 24.9979 431.002 27.0593 429.895 28.8384C428.797 30.6175 427.252 32.0078 425.26 33.0092C423.268 34 420.94 34.4954 418.277 34.4954C415.603 34.4954 413.27 34 411.278 33.0092C409.286 32.0078 407.741 30.6175 406.643 28.8384C405.546 27.0593 404.998 24.9979 404.998 22.6541V1.27273H410.926V22.1587C410.926 23.5224 411.224 24.7369 411.821 25.8022C412.428 26.8675 413.281 27.7038 414.378 28.3111C415.475 28.9077 416.775 29.206 418.277 29.206C419.779 29.206 421.079 28.9077 422.176 28.3111C423.284 27.7038 424.136 26.8675 424.733 25.8022C425.33 24.7369 425.628 23.5224 425.628 22.1587V1.27273ZM438 34V1.27273H450.273C452.787 1.27273 454.897 1.70952 456.601 2.5831C458.316 3.45667 459.611 4.68182 460.484 6.25852C461.369 7.82457 461.811 9.65163 461.811 11.7397C461.811 13.8384 461.363 15.6602 460.468 17.2049C459.584 18.739 458.279 19.9268 456.553 20.7685C454.828 21.5994 452.707 22.0149 450.193 22.0149H441.452V17.093H449.394C450.864 17.093 452.068 16.8906 453.006 16.4858C453.943 16.0703 454.636 15.4684 455.083 14.68C455.541 13.881 455.77 12.9009 455.77 11.7397C455.77 10.5785 455.541 9.58771 455.083 8.7674C454.625 7.93643 453.927 7.30788 452.99 6.88175C452.052 6.44496 450.843 6.22656 449.362 6.22656H443.929V34H438ZM454.907 19.1705L463.009 34H456.394L448.435 19.1705H454.907ZM473.197 1.27273V34H467.268V1.27273H473.197Z" fill="url(#paint0_linear_2001_10)"/>
<defs>
<linearGradient id="paint0_linear_2001_10" x1="-2" y1="18" x2="477" y2="18" gradientUnits="userSpaceOnUse">
<stop stop-color="#4631A1"/>
<stop offset="0.514423" stop-color="#43ADD0"/>
<stop offset="1" stop-color="#E649F5"/>
</linearGradient>
</defs>
</svg>
