<svg width="126" height="115" viewBox="0 0 126 115" fill="none" xmlns="http://www.w3.org/2000/svg">
<rect width="126" height="115" rx="25" fill="#181123"/>
<path d="M53.3533 49.7227C53.1379 47.7068 52.23 46.1372 50.6296 45.0139C49.0446 43.8905 46.9826 43.3288 44.4435 43.3288C42.6585 43.3288 41.1274 43.5981 39.8501 44.1367C38.5729 44.6753 37.5958 45.4063 36.9187 46.3296C36.2416 47.2529 35.8954 48.307 35.88 49.4918C35.88 50.4767 36.1031 51.3307 36.5494 52.054C37.011 52.7772 37.6342 53.3928 38.419 53.9006C39.2038 54.393 40.0733 54.8085 41.0273 55.147C41.9814 55.4856 42.9432 55.7703 43.9126 56.0011L48.3445 57.109C50.1295 57.5245 51.8453 58.0862 53.4918 58.794C55.1538 59.5019 56.6387 60.3944 57.9467 61.4716C59.2701 62.5488 60.3165 63.8491 61.0859 65.3725C61.8554 66.896 62.2401 68.681 62.2401 70.7276C62.2401 73.4975 61.5322 75.9366 60.1165 78.0448C58.7008 80.1376 56.6541 81.7764 53.9766 82.9613C51.3144 84.1308 48.0906 84.7156 44.305 84.7156C40.6272 84.7156 37.4342 84.1462 34.7259 83.0075C32.0329 81.8687 29.9247 80.2068 28.4013 78.0217C26.8932 75.8365 26.0777 73.1744 25.9545 70.0352H34.3796C34.5027 71.6817 35.0105 73.0513 35.9031 74.1438C36.7956 75.2364 37.9574 76.052 39.3885 76.5906C40.835 77.1292 42.4508 77.3985 44.2358 77.3985C46.0978 77.3985 47.7289 77.1215 49.1293 76.5675C50.545 75.9981 51.6529 75.2133 52.4531 74.2131C53.2533 73.1975 53.6611 72.0126 53.6765 70.6584C53.6611 69.4273 53.2995 68.4117 52.5916 67.6115C51.8838 66.7959 50.8912 66.1189 49.614 65.5803C48.3522 65.0263 46.8749 64.5339 45.1822 64.103L39.804 62.7181C35.9107 61.7178 32.8331 60.2021 30.571 58.1708C28.3243 56.1242 27.201 53.4082 27.201 50.0227C27.201 47.2375 27.955 44.7984 29.4631 42.7056C30.9865 40.6128 33.0562 38.9894 35.6722 37.8352C38.2882 36.6657 41.2505 36.081 44.559 36.081C47.9136 36.081 50.8527 36.6657 53.3764 37.8352C55.9155 38.9894 57.9083 40.5974 59.3548 42.6595C60.8013 44.7061 61.5476 47.0605 61.5938 49.7227H53.3533ZM69.8746 84V36.7273H87.6018C91.2335 36.7273 94.2803 37.4044 96.7425 38.7585C99.22 40.1127 101.09 41.9747 102.351 44.3445C103.629 46.6989 104.267 49.3764 104.267 52.3771C104.267 55.4086 103.629 58.1016 102.351 60.456C101.074 62.8104 99.1892 64.6647 96.6963 66.0188C94.2034 67.3576 91.1334 68.027 87.4864 68.027H75.7375V60.9869H86.3323C88.4559 60.9869 90.1948 60.6176 91.5489 59.8789C92.9031 59.1403 93.9033 58.1247 94.5496 56.832C95.2113 55.5394 95.5422 54.0545 95.5422 52.3771C95.5422 50.6998 95.2113 49.2226 94.5496 47.9453C93.9033 46.6681 92.8954 45.6756 91.5258 44.9677C90.1717 44.2445 88.4251 43.8828 86.2861 43.8828H78.4381V84H69.8746Z" fill="url(#paint0_linear_2001_9)"/>
<g filter="url(#filter0_i_2001_9)">
<path d="M115.771 32.156C102.375 36.8573 95.6523 17.7013 95.6523 17.7013C95.6523 17.7013 102.375 36.8573 87.7226 41.9994C102.375 36.8573 109.64 57.5581 109.64 57.5581C109.64 57.5581 102.375 36.8573 115.771 32.156Z" fill="#FDE744"/>
</g>
<defs>
<filter id="filter0_i_2001_9" x="87.7226" y="17.7013" width="28.0486" height="43.8568" filterUnits="userSpaceOnUse" color-interpolation-filters="sRGB">
<feFlood flood-opacity="0" result="BackgroundImageFix"/>
<feBlend mode="normal" in="SourceGraphic" in2="BackgroundImageFix" result="shape"/>
<feColorMatrix in="SourceAlpha" type="matrix" values="0 0 0 0 0 0 0 0 0 0 0 0 0 0 0 0 0 0 127 0" result="hardAlpha"/>
<feOffset dy="4"/>
<feGaussianBlur stdDeviation="2"/>
<feComposite in2="hardAlpha" operator="arithmetic" k2="-1" k3="1"/>
<feColorMatrix type="matrix" values="0 0 0 0 0 0 0 0 0 0 0 0 0 0 0 0 0 0 0.25 0"/>
<feBlend mode="normal" in2="shape" result="effect1_innerShadow_2001_9"/>
</filter>
<linearGradient id="paint0_linear_2001_9" x1="18" y1="68" x2="115.5" y2="67.5" gradientUnits="userSpaceOnUse">
<stop offset="0.0001" stop-color="#4631A1"/>
<stop offset="1" stop-color="#43ADD0"/>
</linearGradient>
</defs>
</svg>
